<?xml version="1.0" standalone="no"?>
<!DOCTYPE svg PUBLIC "-//W3C//DTD SVG 20010904//EN"
 "http://www.w3.org/TR/2001/REC-SVG-20010904/DTD/svg10.dtd">
<svg version="1.0" xmlns="http://www.w3.org/2000/svg"
 width="2973px" height="215px" viewBox="0 0 2973.000000 215.000000"
 preserveAspectRatio="xMidYMid meet">

<g transform="translate(0.000000,215.000000) scale(0.100000,-0.100000)"
fill="#FFFFFF" stroke="none">
<path d="M9525 2139 c-58 -14 -110 -54 -150 -115 -36 -53 -36 -54 -61 -38 -32
21 -84 13 -135 -20 -20 -14 -50 -28 -66 -32 -15 -4 -33 -11 -39 -16 -6 -4 -34
-15 -62 -23 -35 -11 -61 -27 -86 -56 -45 -49 -45 -81 -1 -90 17 -4 252 -7 522
-8 l493 -1 35 48 c38 52 43 77 19 110 -18 25 -64 52 -91 52 -11 0 -36 18 -58
40 -21 21 -51 42 -67 45 -17 4 -38 21 -52 42 -13 19 -32 41 -43 48 -25 18
-110 25 -158 14z"/>
<path d="M24725 2139 c-58 -14 -110 -54 -150 -115 -36 -53 -36 -54 -61 -38
-32 21 -84 13 -135 -20 -20 -14 -50 -28 -66 -32 -15 -4 -33 -11 -39 -16 -6 -4
-34 -15 -62 -23 -35 -11 -61 -27 -86 -56 -45 -49 -45 -81 -1 -90 17 -4 252 -7
522 -8 l493 -1 35 48 c38 52 43 77 19 110 -18 25 -64 52 -91 52 -11 0 -36 18
-58 40 -21 21 -51 42 -67 45 -17 4 -38 21 -52 42 -13 19 -32 41 -43 48 -25 18
-110 25 -158 14z"/>
<path d="M6802 2102 c-109 -39 -236 -153 -266 -238 -12 -37 -15 -39 -59 -42
-41 -3 -47 0 -63 27 -23 39 -55 53 -141 59 -123 8 -200 -14 -333 -97 -39 -23
-60 -29 -145 -35 -126 -9 -241 -32 -283 -58 -25 -15 -60 -22 -161 -28 -84 -6
-149 -16 -191 -30 -128 -43 -291 -139 -335 -196 -16 -22 -43 -49 -59 -59 -87
-59 -121 -161 -71 -220 l25 -30 1337 3 c736 1 1443 6 1571 11 208 7 236 10
260 28 43 31 65 86 66 167 1 61 -3 78 -29 125 -54 98 -135 151 -230 151 -37 0
-42 3 -64 45 -37 70 -128 150 -191 169 -30 9 -59 16 -66 16 -7 0 -25 24 -42
53 -38 67 -108 132 -180 165 -50 23 -72 27 -177 29 -97 3 -130 0 -173 -15z"/>
<path d="M22002 2102 c-109 -39 -236 -153 -266 -238 -12 -37 -15 -39 -59 -42
-41 -3 -47 0 -63 27 -23 39 -55 53 -141 59 -123 8 -200 -14 -333 -97 -39 -23
-60 -29 -145 -35 -126 -9 -241 -32 -283 -58 -25 -15 -60 -22 -161 -28 -84 -6
-149 -16 -191 -30 -128 -43 -291 -139 -335 -196 -16 -22 -43 -49 -59 -59 -87
-59 -121 -161 -71 -220 l25 -30 1337 3 c736 1 1443 6 1571 11 208 7 236 10
260 28 43 31 65 86 66 167 1 61 -3 78 -29 125 -54 98 -135 151 -230 151 -37 0
-42 3 -64 45 -37 70 -128 150 -191 169 -30 9 -59 16 -66 16 -7 0 -25 24 -42
53 -38 67 -108 132 -180 165 -50 23 -72 27 -177 29 -97 3 -130 0 -173 -15z"/>
<path d="M11045 1940 c-155 -34 -286 -132 -354 -267 -16 -33 -37 -63 -46 -67
-31 -11 -50 -6 -60 16 -14 32 -73 44 -141 29 -42 -10 -66 -24 -110 -64 -52
-47 -61 -52 -121 -58 -51 -5 -75 -14 -117 -43 -35 -24 -64 -36 -86 -36 -82 0
-172 -76 -205 -175 -22 -63 -18 -71 41 -86 23 -6 413 -12 950 -16 l911 -6 44
31 c95 66 134 139 119 223 -16 88 -68 123 -177 121 -66 -1 -73 1 -73 19 0 31
-36 94 -70 122 -32 27 -86 47 -130 47 -35 0 -44 9 -58 56 -31 107 -186 183
-317 154z"/>
<path d="M13705 1940 c-155 -34 -286 -132 -354 -267 -16 -33 -37 -63 -46 -67
-31 -11 -50 -6 -60 16 -14 32 -73 44 -141 29 -42 -10 -66 -24 -110 -64 -52
-47 -61 -52 -121 -58 -51 -5 -75 -14 -117 -43 -35 -24 -64 -36 -86 -36 -82 0
-172 -76 -205 -175 -22 -63 -18 -71 41 -86 23 -6 413 -12 950 -16 l911 -6 44
31 c92 63 119 108 119 195 0 104 -57 151 -177 149 -66 -1 -73 1 -73 19 0 31
-36 94 -70 122 -32 27 -86 47 -130 47 -35 0 -44 9 -58 56 -31 107 -186 183
-317 154z"/>
<path d="M26245 1940 c-155 -34 -286 -132 -354 -267 -16 -33 -37 -63 -46 -67
-31 -11 -50 -6 -60 16 -14 32 -73 44 -141 29 -42 -10 -66 -24 -110 -64 -52
-47 -61 -52 -121 -58 -51 -5 -75 -14 -117 -43 -35 -24 -64 -36 -86 -36 -82 0
-172 -76 -205 -175 -22 -63 -18 -71 41 -86 23 -6 413 -12 950 -16 l911 -6 44
31 c95 66 134 139 119 223 -16 88 -68 123 -177 121 -66 -1 -73 1 -73 19 0 31
-36 94 -70 122 -32 27 -86 47 -130 47 -35 0 -44 9 -58 56 -31 107 -186 183
-317 154z"/>
<path d="M28905 1940 c-155 -34 -286 -132 -354 -267 -16 -33 -37 -63 -46 -67
-31 -11 -50 -6 -60 16 -14 32 -73 44 -141 29 -42 -10 -66 -24 -110 -64 -52
-47 -61 -52 -121 -58 -51 -5 -75 -14 -117 -43 -35 -24 -64 -36 -86 -36 -82 0
-172 -76 -205 -175 -22 -63 -18 -71 41 -86 23 -6 413 -12 950 -16 l911 -6 44
31 c92 63 119 108 119 195 0 104 -57 151 -177 149 -66 -1 -73 1 -73 19 0 31
-36 94 -70 122 -32 27 -86 47 -130 47 -35 0 -44 9 -58 56 -31 107 -186 183
-317 154z"/>
<path d="M3596 1808 c-38 -10 -103 -68 -152 -133 -18 -25 -23 -26 -44 -15 -32
17 -94 7 -139 -24 -20 -14 -44 -26 -52 -26 -7 0 -29 -9 -47 -20 -18 -11 -42
-20 -54 -20 -51 0 -132 -79 -126 -123 2 -18 11 -23 48 -29 25 -3 257 -7 517
-7 l471 -1 37 42 c42 49 51 78 35 108 -13 25 -67 60 -92 60 -10 0 -40 20 -68
45 -28 25 -59 45 -70 45 -11 0 -31 18 -50 45 -42 62 -113 79 -214 53z"/>
<path d="M18796 1808 c-38 -10 -103 -68 -152 -133 -18 -25 -23 -26 -44 -15
-32 17 -94 7 -139 -24 -20 -14 -44 -26 -52 -26 -7 0 -29 -9 -47 -20 -18 -11
-42 -20 -54 -20 -51 0 -132 -79 -126 -123 2 -18 11 -23 48 -29 25 -3 257 -7
517 -7 l471 -1 37 42 c42 49 51 78 35 108 -13 25 -67 60 -92 60 -10 0 -40 20
-68 45 -28 25 -59 45 -70 45 -11 0 -31 18 -50 45 -42 62 -113 79 -214 53z"/>
<path d="M1361 1620 c-80 -29 -152 -75 -244 -158 -106 -95 -111 -98 -126 -65
-11 24 -15 25 -62 20 -30 -4 -91 -26 -152 -56 -56 -27 -122 -55 -147 -61 -25
-7 -76 -25 -114 -41 -37 -16 -74 -29 -82 -29 -64 0 -259 -119 -368 -224 -58
-56 -66 -68 -66 -101 l0 -37 938 7 937 6 53 57 c73 79 102 141 102 216 0 77
-27 139 -69 160 -17 9 -55 16 -91 16 -56 0 -60 2 -60 23 0 12 -9 40 -19 63
-19 41 -67 74 -109 74 -24 0 -38 16 -46 56 -8 36 -38 68 -79 83 -44 17 -136
12 -196 -9z"/>
<path d="M16561 1620 c-80 -29 -152 -75 -244 -158 -106 -95 -111 -98 -126 -65
-11 24 -15 25 -62 20 -30 -4 -91 -26 -152 -56 -56 -27 -122 -55 -147 -61 -25
-7 -76 -25 -114 -41 -37 -16 -74 -29 -82 -29 -64 0 -259 -119 -368 -224 -58
-56 -66 -68 -66 -101 l0 -37 938 7 937 6 53 57 c73 79 102 141 102 216 0 77
-27 139 -69 160 -17 9 -55 16 -91 16 -56 0 -60 2 -60 23 0 12 -9 40 -19 63
-19 41 -67 74 -109 74 -24 0 -38 16 -46 56 -8 36 -38 68 -79 83 -44 17 -136
12 -196 -9z"/>
<path d="M8910 1363 c-112 -21 -291 -143 -351 -240 -27 -43 -49 -48 -99 -22
-66 35 -157 15 -240 -51 -14 -12 -54 -27 -88 -35 -34 -8 -85 -26 -112 -40 -27
-14 -64 -25 -83 -25 -80 0 -227 -133 -227 -206 0 -28 5 -36 27 -45 17 -6 303
-9 827 -7 906 3 837 -3 919 87 57 64 73 112 55 167 -16 49 -62 74 -135 74
l-53 0 0 33 c0 37 -30 91 -60 107 -11 6 -40 14 -63 18 -40 7 -42 9 -54 57 -25
103 -129 153 -263 128z"/>
<path d="M24110 1363 c-112 -21 -291 -143 -351 -240 -27 -43 -49 -48 -99 -22
-66 35 -157 15 -240 -51 -14 -12 -54 -27 -88 -35 -34 -8 -85 -26 -112 -40 -27
-14 -64 -25 -83 -25 -80 0 -227 -133 -227 -206 0 -28 5 -36 27 -45 17 -6 303
-9 827 -7 906 3 837 -3 919 87 57 64 73 112 55 167 -16 49 -62 74 -135 74
l-53 0 0 33 c0 37 -30 91 -60 107 -11 6 -40 14 -63 18 -40 7 -42 9 -54 57 -25
103 -129 153 -263 128z"/>
<path d="M6290 1026 c-144 -33 -270 -127 -331 -247 -15 -31 -35 -64 -44 -73
-23 -22 -62 -21 -70 3 -8 28 -67 45 -123 36 -58 -9 -89 -24 -127 -65 -39 -42
-76 -60 -120 -60 -42 0 -101 -23 -131 -51 -12 -11 -45 -24 -77 -29 -30 -5 -68
-15 -84 -23 -88 -47 -169 -209 -115 -232 31 -14 517 -23 1212 -24 l685 -1 40
26 c63 42 86 66 106 109 38 82 17 176 -49 217 -29 18 -50 22 -107 21 l-71 -2
-12 44 c-22 81 -105 144 -192 145 -35 0 -44 9 -64 62 -42 114 -186 177 -326
144z"/>
<path d="M21490 1026 c-144 -33 -270 -127 -331 -247 -15 -31 -35 -64 -44 -73
-23 -22 -62 -21 -70 3 -8 28 -67 45 -123 36 -58 -9 -89 -24 -127 -65 -39 -42
-76 -60 -120 -60 -42 0 -101 -23 -131 -51 -12 -11 -45 -24 -77 -29 -30 -5 -68
-15 -84 -23 -88 -47 -169 -209 -115 -232 31 -14 517 -23 1212 -24 l685 -1 40
26 c63 42 86 66 106 109 38 82 17 176 -49 217 -29 18 -50 22 -107 21 l-71 -2
-12 44 c-22 81 -105 144 -192 145 -35 0 -44 9 -64 62 -42 114 -186 177 -326
144z"/>
<path d="M12105 1009 c-58 -14 -110 -54 -150 -115 -36 -53 -36 -54 -61 -38
-32 21 -84 13 -135 -20 -20 -14 -50 -28 -66 -32 -15 -4 -33 -11 -39 -16 -6 -4
-34 -15 -62 -23 -35 -11 -61 -27 -86 -56 -45 -49 -45 -81 -1 -90 17 -4 252 -7
522 -8 l493 -1 35 48 c38 52 43 77 19 110 -18 25 -64 52 -91 52 -11 0 -36 18
-58 40 -21 21 -51 42 -67 45 -17 4 -38 21 -52 42 -13 19 -32 41 -43 48 -25 18
-110 25 -158 14z"/>
<path d="M27305 1009 c-58 -14 -110 -54 -150 -115 -36 -53 -36 -54 -61 -38
-32 21 -84 13 -135 -20 -20 -14 -50 -28 -66 -32 -15 -4 -33 -11 -39 -16 -6 -4
-34 -15 -62 -23 -35 -11 -61 -27 -86 -56 -45 -49 -45 -81 -1 -90 17 -4 252 -7
522 -8 l493 -1 35 48 c38 52 43 77 19 110 -18 25 -64 52 -91 52 -11 0 -36 18
-58 40 -21 21 -51 42 -67 45 -17 4 -38 21 -52 42 -13 19 -32 41 -43 48 -25 18
-110 25 -158 14z"/>
<path d="M3805 907 c-127 -43 -241 -137 -303 -252 -31 -59 -42 -70 -70 -76
-22 -4 -32 -3 -32 6 0 28 -36 45 -99 45 -73 0 -109 -16 -168 -73 -38 -36 -50
-41 -109 -49 -52 -6 -78 -15 -118 -43 -33 -22 -63 -35 -84 -35 -40 0 -118 -39
-154 -77 -31 -32 -68 -114 -68 -148 0 -47 10 -48 997 -52 l923 -5 32 23 c90
61 128 120 128 196 0 57 -26 105 -72 133 -25 15 -51 20 -105 20 -61 0 -73 3
-73 16 0 9 -12 39 -27 66 -32 60 -86 94 -163 105 -51 8 -54 10 -67 48 -18 55
-66 111 -116 137 -52 27 -191 35 -252 15z"/>
<path d="M19005 907 c-127 -43 -241 -137 -303 -252 -31 -59 -42 -70 -70 -76
-22 -4 -32 -3 -32 6 0 28 -36 45 -99 45 -73 0 -109 -16 -168 -73 -38 -36 -50
-41 -109 -49 -52 -6 -78 -15 -118 -43 -33 -22 -63 -35 -84 -35 -40 0 -118 -39
-154 -77 -31 -32 -68 -114 -68 -148 0 -47 10 -48 997 -52 l923 -5 32 23 c90
61 128 120 128 196 0 57 -26 105 -72 133 -25 15 -51 20 -105 20 -61 0 -73 3
-73 16 0 9 -12 39 -27 66 -32 60 -86 94 -163 105 -51 8 -54 10 -67 48 -18 55
-66 111 -116 137 -52 27 -191 35 -252 15z"/>
<path d="M8525 399 c-58 -14 -110 -54 -150 -115 -36 -53 -36 -54 -61 -38 -32
21 -84 13 -135 -20 -20 -14 -50 -28 -66 -32 -15 -4 -33 -11 -39 -16 -6 -4 -34
-15 -62 -23 -35 -11 -61 -27 -86 -56 -45 -49 -45 -81 -1 -90 17 -4 252 -7 522
-8 l493 -1 35 47 c38 53 43 78 19 111 -18 25 -64 52 -91 52 -11 0 -36 18 -58
40 -21 21 -51 42 -67 45 -17 4 -38 21 -52 42 -13 19 -32 41 -43 48 -25 18
-110 25 -158 14z"/>
<path d="M23725 399 c-58 -14 -110 -54 -150 -115 -36 -53 -36 -54 -61 -38 -32
21 -84 13 -135 -20 -20 -14 -50 -28 -66 -32 -15 -4 -33 -11 -39 -16 -6 -4 -34
-15 -62 -23 -35 -11 -61 -27 -86 -56 -45 -49 -45 -81 -1 -90 17 -4 252 -7 522
-8 l493 -1 35 47 c38 53 43 78 19 111 -18 25 -64 52 -91 52 -11 0 -36 18 -58
40 -21 21 -51 42 -67 45 -17 4 -38 21 -52 42 -13 19 -32 41 -43 48 -25 18
-110 25 -158 14z"/>
</g>
</svg>
