<?xml version="1.0" standalone="no"?>
<!DOCTYPE svg PUBLIC "-//W3C//DTD SVG 20010904//EN"
 "http://www.w3.org/TR/2001/REC-SVG-20010904/DTD/svg10.dtd">
<svg version="1.0" xmlns="http://www.w3.org/2000/svg"
 width="4800.000000pt" height="185.000000pt" viewBox="0 0 4800.000000 185.000000"
 preserveAspectRatio="xMidYMid meet">

<g transform="translate(0.000000,185.000000) scale(0.100000,-0.100000)"
fill="#000000" stroke="none">
<path d="M0 1200 c0 -357 2 -650 4 -650 2 0 97 119 211 265 114 146 208 265
210 265 3 0 290 -347 321 -388 8 -12 77 3 418 87 225 56 415 101 423 101 8 0
92 -23 188 -50 96 -28 181 -50 190 -50 9 0 123 94 253 208 130 114 251 218
267 230 17 12 165 80 330 152 239 104 308 139 340 169 34 33 301 199 345 215
21 8 207 -308 397 -673 l148 -284 298 -316 c163 -174 303 -317 310 -318 6 -1
226 37 487 85 l474 87 111 251 110 251 200 100 200 100 205 -156 205 -157 130
-171 c72 -95 135 -172 141 -172 6 -1 60 50 120 111 102 106 115 124 214 301
57 103 108 186 112 185 4 -2 82 -61 172 -132 131 -102 175 -143 213 -197 26
-38 54 -69 62 -69 8 0 74 23 148 51 l134 51 55 -38 c30 -22 61 -43 70 -49 11
-8 35 11 112 90 l98 100 85 -89 84 -89 125 7 c69 3 153 9 186 12 l62 7 238
203 c130 112 240 204 243 204 3 -1 74 -102 156 -225 83 -123 155 -224 160
-224 6 0 138 224 294 498 l283 498 82 62 c70 53 82 59 88 44 5 -10 26 -96 47
-191 22 -96 41 -176 44 -178 2 -3 100 22 218 55 l214 60 250 -256 250 -255
258 82 c141 44 261 79 265 76 4 -2 95 -128 202 -280 107 -152 200 -275 206
-273 7 1 91 101 189 222 97 121 180 221 184 223 3 1 12 -8 20 -20 8 -13 124
-187 259 -387 166 -247 247 -359 252 -350 4 8 53 157 109 332 l101 318 184
207 c100 114 225 251 277 305 l94 97 161 -102 161 -103 93 -185 c51 -102 137
-255 192 -341 l99 -156 62 13 c34 7 158 35 274 63 l213 50 297 -84 c164 -47
305 -85 315 -85 9 0 100 107 223 265 114 146 208 265 210 265 3 0 290 -347
321 -388 8 -12 77 3 418 87 225 56 415 101 423 101 8 0 92 -23 188 -50 96 -28
181 -50 190 -50 9 0 123 94 253 208 130 114 251 218 267 230 17 12 165 80 330
152 239 104 308 139 340 169 34 33 301 199 345 215 21 8 207 -308 397 -673
l148 -284 298 -316 c163 -174 303 -317 310 -318 6 -1 226 37 487 85 l474 87
111 251 110 251 200 100 200 100 205 -156 205 -157 130 -171 c72 -95 135 -172
141 -172 6 -1 60 50 120 111 102 106 115 124 214 301 57 103 108 186 112 185
4 -2 82 -61 172 -132 131 -102 175 -143 213 -197 26 -38 54 -69 62 -69 8 0 74
23 148 51 l134 51 55 -38 c30 -22 61 -43 70 -49 11 -8 35 11 112 90 l98 100
85 -89 84 -89 125 7 c69 3 153 9 186 12 l62 7 238 203 c130 112 240 204 243
204 3 -1 74 -102 156 -225 83 -123 155 -224 160 -224 6 0 138 224 294 498
l283 498 82 62 c70 53 82 59 88 44 5 -10 26 -96 47 -191 22 -96 41 -176 44
-178 2 -3 100 22 218 55 l214 60 250 -256 250 -255 258 82 c141 44 261 79 265
76 4 -2 95 -128 202 -280 107 -152 200 -275 206 -273 7 1 91 101 189 222 97
121 180 221 184 223 3 1 12 -8 20 -20 8 -13 124 -187 259 -387 166 -247 247
-359 252 -350 4 8 53 157 109 332 l101 318 184 207 c100 114 225 251 277 305
l94 97 161 -102 161 -103 93 -185 c51 -102 137 -255 192 -341 l99 -156 62 13
c34 7 158 35 274 63 l213 50 301 -85 c165 -47 306 -83 313 -81 7 3 106 125
220 271 114 146 209 266 211 266 3 0 290 -347 321 -388 8 -12 77 3 418 87 225
56 415 101 423 101 8 0 92 -23 188 -50 96 -28 181 -50 190 -50 9 0 123 94 253
208 130 114 251 218 267 230 17 12 165 80 330 152 239 104 308 139 340 169 34
33 301 199 345 215 21 8 207 -308 397 -673 l148 -284 298 -316 c163 -174 303
-317 310 -318 6 -1 226 37 487 85 l474 87 111 251 110 251 200 100 200 100
205 -156 205 -157 130 -171 c72 -95 135 -172 141 -172 6 -1 60 50 120 112 102
105 115 123 214 300 57 103 108 186 112 185 4 -2 82 -61 172 -132 131 -102
175 -143 213 -197 26 -38 54 -69 62 -69 8 0 74 23 148 51 l134 51 55 -38 c30
-22 61 -43 70 -49 11 -8 35 11 112 90 l98 100 85 -89 84 -89 125 7 c69 3 153
9 186 12 l62 7 238 203 c130 112 240 204 243 204 3 -1 74 -102 156 -225 83
-123 155 -224 160 -224 6 0 138 224 294 498 l283 498 82 62 c70 53 82 59 88
44 5 -10 26 -96 47 -191 22 -96 41 -176 44 -178 2 -3 100 22 218 55 l214 60
250 -256 250 -255 258 82 c141 44 261 79 265 76 4 -2 95 -128 202 -280 107
-152 200 -275 206 -273 7 1 91 101 189 222 97 121 180 221 184 223 3 1 12 -8
20 -20 8 -13 124 -187 259 -387 166 -247 247 -359 252 -350 4 8 53 157 109
332 l101 318 184 207 c100 114 225 251 277 305 l94 97 161 -102 161 -103 93
-185 c51 -102 137 -255 192 -341 l99 -156 62 13 c34 7 158 35 274 63 l213 50
282 -80 c156 -44 289 -81 296 -84 9 -3 12 129 12 640 l0 645 -24000 0 -24000
0 0 -650z"/>
</g>
</svg>
